# xmcd
#
# Track frame offsets: 
#        150
#        41645
#        73057
#        91227
#        125255
#        155335
#        177015
#        200900
#        208080
#        230905
#        242205
#
# Disc length: 3607 seconds
#
# Revision: 1
# Processed by: cddbd v1.5.2PL0 Copyright (c) Steve Scherf et al.
# Submitted via: ExactAudioCopyFreeDBPlugin 1.0
#
DISCID=9f0e150b
DTITLE=Hebler,Grumiaux Trio - Schubert - Piano Quintet 'The Trout',Mom
DTITLE=ents Musicaum
DYEAR=1900
DGENRE=
TTITLE0=Piano Quintet in A Major, Op.114 D.667 'The Trout - 1. Allegro
TTITLE0=vivace
TTITLE1=Piano Quintet in A Major, Op.114 D.667 'The Trout - 2. Andate
TTITLE2=Piano Quintet in A Major, Op.114 D.667 'The Trout - 3. Scherzo
TTITLE2=(Presto)
TTITLE3=Piano Quintet in A Major, Op.114 D.667 'The Trout - 4. Andanti
TTITLE3=no (Tema con variazioni)
TTITLE4=Piano Quintet in A Major, Op.114 D.667 'The Trout - 5. Finale 
TTITLE4=(Allegro jiusto)
TTITLE5=Moments Musicaux No.1 in C Major
TTITLE6=Moments Musicaux No2. in A flat Major
TTITLE7=Moments Musicaux No.3 in F minor
TTITLE8=Moments Musicaux No.4 in C sharp minor
TTITLE9=Moments Musicaux No.5 in F minor
TTITLE10=Moments Musicaux No.6 in A flat Major
EXTD=
EXTT0=
EXTT1=
EXTT2=
EXTT3=
EXTT4=
EXTT5=
EXTT6=
EXTT7=
EXTT8=
EXTT9=
EXTT10=
PLAYORDER=
